<svg width="16" height="16" viewBox="0 0 16 16" fill="none" xmlns="http://www.w3.org/2000/svg">
<g clip-path="url(#clip0)">
<g clip-path="url(#clip1)">
<path d="M13.6904 8.54126H12.453C12.5791 8.88657 12.648 9.25923 12.648 9.64764V14.3242C12.648 14.4861 12.6198 14.6416 12.5685 14.7861H14.6142C15.3784 14.7861 16 14.1645 16 13.4003V10.8509C16 9.57739 14.9639 8.54126 13.6904 8.54126Z" fill="black"/>
<path d="M3.35205 9.64764C3.35205 9.2592 3.42096 8.88657 3.54708 8.54126H2.3097C1.03614 8.54126 1.14441e-05 9.57739 1.14441e-05 10.851V13.4004C1.14441e-05 14.1645 0.621669 14.7862 1.38583 14.7862H3.43152C3.38024 14.6416 3.35205 14.4861 3.35205 14.3242V9.64764Z" fill="black"/>
<path d="M9.41443 7.33789H6.58562C5.31205 7.33789 4.27592 8.37402 4.27592 9.64758V14.3242C4.27592 14.5792 4.48274 14.7861 4.73786 14.7861H11.2622C11.5173 14.7861 11.7241 14.5793 11.7241 14.3242V9.64758C11.7241 8.37402 10.688 7.33789 9.41443 7.33789Z" fill="black"/>
<path d="M8.00003 1.21387C6.4684 1.21387 5.22234 2.45993 5.22234 3.99159C5.22234 5.0305 5.79574 5.93785 6.64256 6.41422C7.04421 6.64016 7.50728 6.76929 8.00003 6.76929C8.49278 6.76929 8.95584 6.64016 9.3575 6.41422C10.2043 5.93785 10.7777 5.03047 10.7777 3.99159C10.7777 2.45996 9.53166 1.21387 8.00003 1.21387Z" fill="black"/>
<path d="M3.12245 3.80273C1.97698 3.80273 1.0451 4.73461 1.0451 5.88008C1.0451 7.02555 1.97698 7.95743 3.12245 7.95743C3.41301 7.95743 3.6897 7.89724 3.94105 7.78906C4.37561 7.60196 4.73392 7.27077 4.95564 6.85593C5.11127 6.56477 5.1998 6.23261 5.1998 5.88008C5.1998 4.73464 4.26792 3.80273 3.12245 3.80273Z" fill="black"/>
<path d="M12.8776 3.80273C11.7321 3.80273 10.8003 4.73461 10.8003 5.88008C10.8003 6.23265 10.8888 6.5648 11.0444 6.85593C11.2661 7.2708 11.6244 7.60199 12.059 7.78906C12.3104 7.89724 12.587 7.95743 12.8776 7.95743C14.0231 7.95743 14.955 7.02555 14.955 5.88008C14.955 4.73461 14.0231 3.80273 12.8776 3.80273Z" fill="black"/>
</g>
</g>
<defs>
<clipPath id="clip0">
<rect width="16" height="16" fill="white"/>
</clipPath>
<clipPath id="clip1">
<rect width="16" height="16" fill="white"/>
</clipPath>
</defs>
</svg>
