<svg width="16" height="16" viewBox="0 0 16 16" fill="none" xmlns="http://www.w3.org/2000/svg">
<g clip-path="url(#clip0)">
<path d="M8.00001 0.800049C6.09045 0.800049 4.2591 1.55862 2.90884 2.90888C1.55858 4.25914 0.800011 6.09049 0.800011 8.00005C0.800011 9.90961 1.55858 11.741 2.90884 13.0912C4.2591 14.4415 6.09045 15.2 8.00001 15.2C9.90957 15.2 11.7409 14.4415 13.0912 13.0912C14.4414 11.741 15.2 9.90961 15.2 8.00005C15.2 6.09049 14.4414 4.25914 13.0912 2.90888C11.7409 1.55862 9.90957 0.800049 8.00001 0.800049V0.800049ZM1.68801 8.54405H3.69601C3.72801 9.27205 3.82961 9.99525 4.00001 10.704H2.27201C1.94977 10.0248 1.75198 9.29317 1.68801 8.54405ZM8.54401 4.22405V1.75205C9.31496 2.04503 9.94845 2.61575 10.32 3.35205C10.484 3.62965 10.6288 3.91845 10.752 4.21605L8.54401 4.22405ZM11.12 5.30405C11.3056 6.01045 11.416 6.73445 11.448 7.46405H8.54401V5.30405H11.12ZM7.45601 1.75205V4.22405H5.24801C5.37142 3.92621 5.51578 3.63748 5.68001 3.36005C6.04999 2.62073 6.68368 2.04698 7.45601 1.75205ZM7.45601 5.30405V7.46405H4.56001C4.59201 6.73445 4.70241 6.01045 4.88801 5.30405H7.45601ZM3.69601 7.45605H1.68801C1.75198 6.70692 1.94977 5.97534 2.27201 5.29605H4.00001C3.82928 6.00457 3.72748 6.72793 3.69601 7.45605ZM4.56001 8.54405H7.45601V10.704H4.88801C4.70244 9.99771 4.59249 9.27364 4.56001 8.54405ZM7.46401 11.744V14.216C6.69307 13.9231 6.05957 13.3524 5.68801 12.616C5.52378 12.3386 5.37942 12.0499 5.25601 11.752L7.46401 11.744ZM8.54401 14.216V11.784H10.752C10.6286 12.0819 10.4842 12.3706 10.32 12.648C9.94845 13.3843 9.31496 13.9551 8.54401 14.248V14.216ZM8.54401 10.664V8.50405H11.44C11.4075 9.23364 11.2976 9.95771 11.112 10.664H8.54401ZM12.312 8.50405H14.32C14.256 9.25317 14.0582 9.98475 13.736 10.664H12C12.168 9.96805 12.2696 9.25845 12.304 8.54405L12.312 8.50405ZM12.312 7.42405C12.2754 6.7091 12.1709 5.99924 12 5.30405H13.728C14.0504 5.98405 14.248 6.71525 14.312 7.46405L12.312 7.42405ZM13.112 4.22405H11.68C11.4209 3.49629 11.0454 2.81543 10.568 2.20805C11.5635 2.65491 12.4282 3.34889 13.08 4.22405H13.112ZM5.43201 2.20805C4.95467 2.81543 4.57911 3.49629 4.32001 4.22405H2.92001C3.57179 3.34889 4.43651 2.65491 5.43201 2.20805ZM2.91201 11.808H4.32001C4.57911 12.5358 4.95467 13.2167 5.43201 13.824C4.43375 13.3705 3.56877 12.668 2.92001 11.784L2.91201 11.808ZM10.56 13.824C11.0374 13.2167 11.4129 12.5358 11.672 11.808H13.08C12.4243 12.6715 11.5599 13.3542 10.568 13.792L10.56 13.824Z" fill="black"/>
</g>
<defs>
<clipPath id="clip0">
<rect width="16" height="16" fill="white"/>
</clipPath>
</defs>
</svg>
