<svg width="16" height="16" viewBox="0 0 16 16" fill="none" xmlns="http://www.w3.org/2000/svg">
<path d="M13.64 2.16002C15.184 3.71202 15.184 6.26402 13.64 7.81602L8.00001 13.472C6.49601 14.984 4.07201 15.016 2.51201 13.592C2.46401 13.552 2.40801 13.52 2.36001 13.472C0.816011 11.92 0.816011 9.37602 2.36001 7.81602L6.31201 3.85602C7.04001 3.12002 8.13601 2.97602 9.02401 3.39202C9.26401 3.51202 9.49601 3.65602 9.68801 3.85602C10.1375 4.30602 10.3899 4.91602 10.3899 5.55202C10.3899 6.18803 10.1375 6.79802 9.68801 7.24802L5.74401 11.208C5.59443 11.3576 5.39155 11.4416 5.18001 11.4416C4.96847 11.4416 4.76559 11.3576 4.61601 11.208C4.46643 11.0584 4.38239 10.8556 4.38239 10.644C4.38239 10.4325 4.46643 10.2296 4.61601 10.08L8.56001 6.12002C8.63417 6.04601 8.69301 5.9581 8.73316 5.86132C8.7733 5.76454 8.79397 5.6608 8.79397 5.55602C8.79397 5.45125 8.7733 5.3475 8.73316 5.25072C8.69301 5.15394 8.63417 5.06603 8.56001 4.99202C8.48679 4.91791 8.39959 4.85907 8.30346 4.81891C8.20733 4.77875 8.10419 4.75807 8.00001 4.75807C7.89583 4.75807 7.79269 4.77875 7.69656 4.81891C7.60043 4.85907 7.51323 4.91791 7.44001 4.99202L3.48801 8.95202C2.76001 9.68802 2.60801 10.784 3.03201 11.672C3.14401 11.912 3.28801 12.144 3.48801 12.344C3.68801 12.544 3.92001 12.688 4.16001 12.8C5.04801 13.224 6.13601 13.08 6.87201 12.344L12.512 6.68802C12.9581 6.23462 13.2081 5.62406 13.2081 4.98802C13.2081 4.35198 12.9581 3.74142 12.512 3.28802C12.064 2.84802 11.488 2.62402 10.912 2.60002C10.7911 2.61418 10.6685 2.60223 10.5526 2.56496C10.4366 2.5277 10.3301 2.466 10.24 2.38402C9.92801 2.06402 9.93601 1.54402 10.256 1.22402C10.384 1.09602 10.544 1.03202 10.704 1.00002C10.816 0.984023 10.92 0.992023 11.024 1.01602C11.976 1.06402 12.912 1.43202 13.64 2.16002Z" fill="black"/>
</svg>
