<svg width="24" height="24" viewBox="0 0 24 24" fill="none" xmlns="http://www.w3.org/2000/svg">
<path d="M14.5679 5.016C15.6373 6.08664 16.3066 7.49201 16.4638 8.99702C16.6211 10.502 16.2568 12.0154 15.4319 13.284C15.5759 13.404 15.6959 13.536 15.8639 13.656C16.1039 13.848 16.4279 14.088 16.8359 14.364C17.2439 14.652 17.5079 14.832 17.6279 14.928C18.1319 15.3 18.5039 15.612 18.7559 15.864C19.1399 16.248 19.4759 16.644 19.7639 17.064C20.0639 17.484 20.2919 17.892 20.4719 18.312C20.6399 18.732 20.7239 19.128 20.6879 19.512C20.6639 19.896 20.5199 20.22 20.2559 20.484C19.9919 20.748 19.6679 20.892 19.2839 20.916C18.9119 20.94 18.5039 20.868 18.0959 20.688C17.6759 20.52 17.2559 20.28 16.8479 19.98C16.4279 19.692 16.0319 19.356 15.6479 18.972C15.3959 18.72 15.0839 18.348 14.7239 17.856C14.6039 17.7 14.4239 17.436 14.1599 17.064C13.8959 16.68 13.6799 16.38 13.4879 16.128C13.2959 15.888 13.1399 15.708 12.9599 15.528C11.7144 16.1802 10.2932 16.4178 8.90321 16.2063C7.51325 15.9948 6.22707 15.3452 5.23191 14.352C2.66391 11.772 2.66391 7.584 5.23191 5.016C5.84465 4.40252 6.57232 3.91583 7.37329 3.58378C8.17426 3.25172 9.03283 3.08081 9.89991 3.08081C10.767 3.08081 11.6256 3.25172 12.4265 3.58378C13.2275 3.91583 13.9552 4.40252 14.5679 5.016V5.016ZM12.8759 12.648C13.6599 11.8583 14.0998 10.7907 14.0998 9.678C14.0998 8.56527 13.6599 7.49767 12.8759 6.708C12.4863 6.31723 12.0234 6.00719 11.5138 5.79564C11.0041 5.5841 10.4577 5.4752 9.90591 5.4752C9.3541 5.4752 8.80771 5.5841 8.29806 5.79564C7.78841 6.00719 7.32552 6.31723 6.93591 6.708C6.54514 7.09761 6.2351 7.5605 6.02355 8.07015C5.81201 8.5798 5.70311 9.12619 5.70311 9.678C5.70311 10.2298 5.81201 10.7762 6.02355 11.2858C6.2351 11.7955 6.54514 12.2584 6.93591 12.648C7.32552 13.0388 7.78841 13.3488 8.29806 13.5604C8.80771 13.7719 9.3541 13.8808 9.90591 13.8808C10.4577 13.8808 11.0041 13.7719 11.5138 13.5604C12.0234 13.3488 12.4863 13.0388 12.8759 12.648V12.648Z" fill="white"/>
</svg>
