<svg width="24" height="24" viewBox="0 0 24 24" fill="none" xmlns="http://www.w3.org/2000/svg">
<g clip-path="url(#clip0)">
<path d="M3.59998 5.39999V2.99999C3.59998 2.99999 7.60798 1.79999 12 1.79999C16.392 1.79999 20.4 2.99999 20.4 2.99999V5.39999L14.4 13.836V22.2C14.4 22.2 12.936 22.092 11.7 21.492C10.464 20.892 9.59998 19.8 9.59998 19.8V13.836L3.59998 5.39999Z" fill="#445566"/>
<path d="M22.3036 10.8135L22.6572 10.46L22.3036 10.1064L20.8936 8.69643L20.5405 8.34338L20.187 8.69593L17.0005 11.8734L13.8236 8.69643L13.47 8.34288L13.1165 8.69643L11.6965 10.1164L11.3429 10.47L11.6965 10.8235L14.8729 14L11.6965 17.1764L11.3429 17.53L11.6965 17.8835L13.1165 19.3035L13.47 19.6571L13.8236 19.3035L17.0005 16.1266L20.187 19.304L20.5405 19.6566L20.8936 19.3035L22.3036 17.8935L22.6572 17.54L22.3036 17.1864L19.1172 14L22.3036 10.8135Z" fill="#FF0000" stroke="#EEEEEE"/>
</g>
<defs>
<clipPath id="clip0">
<rect width="24" height="24" fill="white"/>
</clipPath>
</defs>
</svg>
